PathFileType  4	(X/Y/Z) C:\Users\antoi\Documents\MyRepositories\mobilecap\ResultsAnalysis
DataRate	CameraRate	NumFrames	NumMarkers	Units	OrigDataRate	OrigDataStartFrame	OrigNumFrames
100.0	100.0	6	51	mm	100.0	108	286
Frame#	Time	r_knee			r_shank_antsup			r_ankle			r_calc			r_5meta			r_toe			L_knee			L_shank_antsup			L_ankle			L_calc			L_5meta			L_toe			r_sh2			r_sh3			r_sh4			L_sh2			L_sh3			r_thigh1			r_thigh2			r_thigh3			r_thigh4			r_thigh5			L_thigh1			L_thigh2			L_thigh3			L_thigh4			r.ASIS			r.PSIS			L.ASIS			L.PSIS			C7			R_Shoulder			L_Shoulder			R_Sternum			L_Sternum			R_humerus			R_elbow_med			R_elbow_lat			R_forearm			R_wrist_radius			R_wrist_ulna			L_humerus			L_elbow_med			L_elbow_lat			L_forearm			L_wrist_radius			L_wrist_ulna			R_HJC			L_HJC			R_HJC_reg			L_HJC_reg			
		X1	Y1	Z1	X2	Y2	Z2	X3	Y3	Z3	X4	Y4	Z4	X5	Y5	Z5	X6	Y6	Z6	X7	Y7	Z7	X8	Y8	Z8	X9	Y9	Z9	X10	Y10	Z10	X11	Y11	Z11	X12	Y12	Z12	X13	Y13	Z13	X14	Y14	Z14	X15	Y15	Z15	X16	Y16	Z16	X17	Y17	Z17	X18	Y18	Z18	X19	Y19	Z19	X20	Y20	Z20	X21	Y21	Z21	X22	Y22	Z22	X23	Y23	Z23	X24	Y24	Z24	X25	Y25	Z25	X26	Y26	Z26	X27	Y27	Z27	X28	Y28	Z28	X29	Y29	Z29	X30	Y30	Z30	X31	Y31	Z31	X32	Y32	Z32	X33	Y33	Z33	X34	Y34	Z34	X35	Y35	Z35	X36	Y36	Z36	X37	Y37	Z37	X38	Y38	Z38	X39	Y39	Z39	X40	Y40	Z40	X41	Y41	Z41	X42	Y42	Z42	X43	Y43	Z43	X44	Y44	Z44	X45	Y45	Z45	X46	Y46	Z46	X47	Y47	Z47	X48	Y48	Z48	X49	Y49	Z49	X50	Y50	Z50	X51	Y51	Z51	

108	1.07000000	-704.78072	995.91949	-407.69992	-755.29418	856.95618	-404.55011	-1025.92047	610.36631	-388.43002	-1078.17392	647.99479	-449.38413	-1007.96668	459.88761	-374.11412	-962.08432	447.54873	-424.60721	-821.20698	995.55200	-784.69301	-875.86088	802.20127	-782.25284	-1116.47351	611.83806	-773.37819	-1144.09620	642.39599	-694.58752	-1153.97888	449.90128	-810.00293	-1092.14303	419.76968	-773.68473	-825.79656	767.61591	-403.93020	-806.52826	895.02977	-365.63597	-877.24457	810.33135	-355.22646	-934.24371	854.59967	-821.38737	-1008.21841	763.19419	-805.15153	-721.00253	1285.77778	-380.97867	-680.64673	1180.46839	-383.43108	-733.41492	1137.27696	-373.56070	-825.87722	1248.93846	-402.39065	-785.51786	1137.61876	-394.82680	-766.26549	1288.20432	-779.34125	-757.30514	1153.74720	-790.07052	-876.67410	1284.79929	-772.21714	-864.93308	1149.03198	-790.67295	-715.90993	1556.50098	-451.83722	-904.16264	1604.66966	-516.53682	-754.54787	1551.82165	-713.14883	-914.22679	1608.26795	-608.71852	-788.84497	2079.83256	-571.39080	-689.93363	2052.75584	-431.49162	-748.30907	2067.88145	-728.03579	-654.61109	1989.71925	-562.37727	-659.69276	1992.11754	-612.16329	-715.07061	1853.96464	-255.10800	-819.38102	1737.75472	-223.48885	-792.46320	1796.36959	-163.22536	-597.00081	1761.67378	-236.72203	-521.14994	1744.61541	-280.02489	-515.92427	1735.52237	-243.91293	-699.94040	1877.26809	-923.92540	-765.61486	1759.19201	-960.84086	-733.81992	1822.04581	-1011.30619	-564.74884	1863.12389	-910.70806	-515.60408	1878.17198	-865.02102	-497.35297	1862.98480	-888.79710	-806.84655	1469.62328	-474.12701	-837.37219	1470.80137	-669.22672	-798.80719	1476.05583	-483.48361	-817.71728	1482.81714	-656.69140	
109	1.08000000	-687.97457	1004.14242	-407.42986	-736.67386	864.61804	-404.32524	-1004.19911	614.79688	-387.29132	-1056.64897	651.52344	-448.64425	-984.37945	464.74829	-372.14935	-938.45584	452.51708	-422.44566	-802.01867	1004.15680	-786.78815	-859.28480	812.33791	-786.31404	-1103.52689	626.71162	-774.49213	-1127.98516	654.71240	-693.74861	-1143.45835	466.88369	-815.76625	-1080.72775	434.66046	-782.57084	-806.00159	774.24921	-403.24185	-788.37542	902.12025	-365.27906	-857.99763	816.16122	-354.89823	-917.96229	865.76932	-823.41275	-992.85195	775.26828	-806.75890	-708.26522	1293.79299	-380.23612	-666.39322	1189.27621	-383.32453	-718.22993	1144.98757	-372.73100	-812.80733	1255.13325	-400.31155	-770.45187	1144.44779	-393.58813	-752.67961	1297.39816	-777.99990	-740.09179	1163.16069	-790.26374	-863.09015	1291.39822	-773.42005	-847.68158	1156.07160	-792.48092	-707.27811	1561.87785	-450.60119	-895.13358	1611.48365	-514.57566	-745.31996	1556.01884	-711.46817	-905.38472	1614.94651	-606.74719	-777.12799	2086.41568	-569.40282	-678.06416	2058.30359	-429.27762	-735.85479	2074.64395	-726.35843	-643.29194	1996.19498	-559.89980	-648.53006	1998.25590	-609.87599	-708.02761	1859.09487	-254.14335	-814.65780	1744.36302	-223.87714	-787.67449	1802.66257	-163.34359	-591.62002	1763.92676	-233.41749	-515.35117	1745.34271	-275.44989	-510.83863	1736.22965	-239.10408	-692.47876	1883.22557	-922.88715	-761.17848	1766.87937	-959.38071	-728.34624	1828.98721	-1010.11173	-557.80681	1866.24901	-910.32015	-508.16624	1880.14434	-864.93488	-490.44828	1864.70972	-888.69792	-798.89591	1475.72746	-471.89193	-829.55860	1476.25526	-666.97239	-790.43894	1481.82719	-481.83240	-809.66276	1488.32176	-654.68269	
110	1.09000000	-671.75591	1011.51257	-406.85571	-718.16948	871.13408	-404.07585	-981.85781	617.52240	-386.54514	-1034.71976	652.93278	-448.14685	-959.40334	468.05281	-370.20226	-913.27441	456.01053	-420.40151	-783.08871	1012.29375	-789.35754	-843.26305	822.63915	-789.93646	-1089.89237	640.40989	-775.31794	-1114.98152	665.24484	-693.81253	-1126.90559	482.00788	-822.69541	-1063.95269	449.52181	-790.07295	-786.00983	779.67982	-402.68135	-770.31941	907.69838	-364.71548	-839.05465	821.15519	-354.20074	-902.15553	877.25839	-824.97481	-977.98449	787.75615	-807.71105	-695.96397	1300.81908	-379.42544	-652.69997	1197.14261	-382.99463	-703.58231	1151.84387	-371.91726	-800.29650	1260.55050	-398.23581	-756.03259	1150.44381	-392.25073	-739.44973	1305.72990	-777.08263	-723.53185	1172.15351	-791.01381	-849.71590	1297.34876	-774.75390	-830.78696	1162.54446	-794.61252	-698.68466	1566.50652	-449.14104	-886.32559	1617.34034	-512.51196	-736.70005	1559.74013	-709.54754	-896.79869	1620.61758	-604.51780	-765.13829	2092.00837	-567.68142	-666.10801	2062.76086	-427.12214	-722.99925	2080.19129	-724.95191	-631.81181	2000.99628	-557.69363	-637.06664	2003.01723	-607.81610	-700.73205	1863.22543	-253.19916	-809.45896	1750.16812	-224.80236	-782.38144	1807.63839	-163.52725	-585.94528	1764.68887	-230.40135	-509.17191	1744.79133	-270.61512	-505.40105	1735.43585	-234.39765	-684.67294	1888.07439	-922.11076	-756.25020	1773.44557	-958.09871	-722.52498	1834.73544	-1009.09673	-550.66589	1868.02259	-910.16014	-500.45641	1880.73819	-865.02460	-483.25444	1865.07378	-888.70271	-790.94283	1480.98232	-469.55141	-821.93383	1480.96445	-664.58078	-782.21013	1486.92131	-479.87274	-801.84903	1493.06628	-652.39729	
111	1.10000000	-656.11669	1017.95148	-406.12102	-699.94920	876.55080	-403.67630	-959.02803	618.56179	-386.04956	-1012.71029	652.15969	-447.82381	-932.81423	469.91060	-368.22681	-886.30687	458.37478	-418.57881	-764.74385	1019.97603	-792.06920	-827.07508	832.12579	-793.27666	-1074.68959	652.22016	-776.50788	-1102.54501	674.23319	-695.05152	-1106.85477	495.10983	-829.96026	-1044.52156	462.72312	-796.02566	-766.04803	783.88595	-402.31922	-752.51003	911.92040	-363.84193	-820.71373	825.26658	-352.96318	-885.98417	888.42803	-826.32450	-962.73515	799.26226	-808.14526	-684.32203	1306.93385	-378.43596	-639.42234	1204.02520	-382.54619	-689.54013	1157.98077	-370.87258	-788.23115	1265.07511	-396.31422	-742.11838	1155.43111	-391.06268	-726.80549	1313.44032	-776.62089	-707.76225	1180.60060	-792.13580	-836.81476	1302.76156	-775.90263	-814.66951	1168.49692	-796.96944	-689.92838	1571.28898	-447.90465	-877.65885	1622.22412	-510.47498	-728.84396	1564.33205	-707.64312	-888.40421	1625.39671	-602.18129	-752.95388	2096.70581	-566.26347	-654.14356	2066.17006	-425.05296	-709.88990	2084.71398	-723.54704	-620.34809	2004.43457	-555.84792	-625.37189	2006.56356	-605.94595	-693.18078	1866.21098	-252.32166	-803.75150	1754.92703	-226.04110	-776.59537	1811.35310	-163.83292	-580.00504	1764.10203	-227.57315	-502.71700	1742.94055	-265.80802	-499.65496	1733.22831	-229.79961	-676.59754	1891.68657	-921.46390	-750.83556	1778.84092	-956.94774	-716.31773	1839.32243	-1008.21246	-543.25137	1868.44081	-910.06687	-492.55914	1880.02646	-865.15651	-475.79133	1864.13465	-888.95463	-782.24710	1485.81959	-467.62572	-813.97460	1485.65161	-662.53656	-773.60770	1491.94118	-478.17377	-793.77607	1497.89533	-650.29577	
112	1.11000000	-640.99624	1023.45505	-405.37961	-682.09588	881.08851	-403.06358	-935.71773	617.87593	-385.59657	-990.33295	649.40927	-447.68755	-904.66840	470.42950	-366.29395	-857.79587	459.74806	-416.79350	-747.06424	1027.03402	-794.68743	-810.42675	840.15031	-796.47770	-1058.35486	661.91906	-778.35750	-1089.00626	681.74283	-697.05023	-1085.88620	506.16330	-836.52690	-1024.48410	473.88137	-801.07079	-746.18561	786.76714	-402.28661	-735.14610	915.11464	-362.87088	-802.26767	827.42871	-351.85602	-869.19235	898.20897	-828.13952	-946.76795	808.74026	-808.97583	-673.22017	1312.24253	-377.24000	-626.66916	1209.94320	-381.93448	-676.13399	1163.40698	-369.40167	-776.57039	1268.75231	-394.36406	-728.70838	1159.60316	-389.79515	-714.87602	1320.69293	-776.75951	-692.92145	1188.35394	-793.38399	-824.61431	1307.63097	-776.72609	-799.52825	1173.99484	-799.27023	-681.12338	1575.59019	-446.67857	-869.05883	1626.12324	-508.31682	-721.19071	1568.86202	-705.93091	-880.16245	1629.34644	-599.82097	-740.58403	2100.50040	-565.06747	-642.07414	2068.59688	-423.06021	-696.61635	2088.09069	-722.23542	-608.69440	2007.01446	-554.09200	-613.58553	2009.13319	-604.11543	-685.37259	1867.90920	-251.57325	-797.70293	1758.20445	-227.18144	-770.40700	1813.78584	-164.27481	-573.81803	1762.15593	-224.99133	-496.22579	1739.50189	-261.57886	-493.88107	1729.55250	-225.59055	-668.29863	1893.94493	-920.83661	-745.50459	1783.18355	-955.80953	-709.77558	1842.73523	-1007.29467	-535.56615	1867.60425	-910.02583	-484.46089	1878.01053	-865.27964	-468.12868	1861.91385	-889.39603	-773.22502	1489.91110	-465.94996	-805.82878	1489.89090	-660.71600	-764.74222	1496.20939	-476.62302	-785.59259	1502.26194	-648.45137	
113	1.12000000	-626.39676	1028.11051	-404.50737	-664.61514	884.84332	-402.26178	-911.82604	615.54717	-385.14622	-967.13368	645.07962	-447.57110	-875.37801	469.61498	-364.58161	-828.07081	460.13644	-414.98151	-729.89284	1033.25101	-797.21710	-793.46941	846.64804	-799.48844	-1041.52774	669.49749	-780.83550	-1073.81725	687.67953	-699.32372	-1065.43230	514.91012	-842.05349	-1004.62412	483.01181	-805.96812	-726.38669	788.60115	-402.25528	-718.41870	917.55111	-362.11734	-783.01434	827.33946	-351.56636	-852.08392	905.74362	-830.34511	-930.13664	816.03077	-810.89711	-662.45855	1316.68253	-375.94566	-614.56621	1214.88811	-381.02741	-663.32003	1167.86492	-367.80293	-765.32274	1271.67693	-392.30751	-715.92869	1163.27400	-388.00066	-703.72435	1327.30786	-777.42685	-678.99570	1195.37195	-794.70230	-813.14931	1311.82297	-777.15697	-785.28774	1178.94176	-801.12848	-672.46405	1578.67060	-445.18983	-860.50685	1629.16763	-505.96496	-713.35374	1572.21498	-704.23082	-871.95883	1632.50999	-597.44808	-727.94859	2103.32473	-563.91298	-629.79802	2070.09992	-421.02399	-683.31552	2090.03498	-721.17704	-596.84587	2008.74617	-552.49883	-601.65337	2010.76825	-602.35535	-677.39872	1868.44500	-250.96332	-791.36310	1759.95746	-228.27046	-763.83006	1814.89363	-164.90334	-567.40221	1758.86011	-222.69190	-489.68122	1734.45310	-257.92293	-488.09123	1724.44000	-221.94971	-659.86103	1894.88381	-920.17099	-740.39286	1786.44611	-954.68262	-702.97473	1844.92491	-1006.29600	-527.67545	1865.60332	-910.12853	-476.09800	1874.68822	-865.49679	-460.28393	1858.43684	-889.93855	-764.50841	1492.95402	-464.16134	-797.81976	1493.16218	-658.80774	-756.06938	1499.28789	-474.92308	-777.56050	1505.56043	-646.60570	
